<?xml version="1.0" standalone="no"?>
<!DOCTYPE svg PUBLIC "-//W3C//DTD SVG 20010904//EN"
 "http://www.w3.org/TR/2001/REC-SVG-20010904/DTD/svg10.dtd">
<svg version="1.0" xmlns="http://www.w3.org/2000/svg"
 width="64.000000pt" height="64.000000pt" viewBox="0 0 64.000000 64.000000"
 preserveAspectRatio="xMidYMid meet">

<g transform="translate(0.000000,64.000000) scale(0.100000,-0.100000)"
fill="#000000" stroke="none">
<path d="M302 575 c-8 -16 -23 -28 -42 -32 -39 -7 -44 -16 -20 -38 13 -11 20
-31 20 -53 0 -29 3 -33 18 -26 22 10 62 10 85 0 14 -7 17 -3 17 27 0 19 7 40
15 47 24 20 18 37 -15 44 -19 3 -34 15 -42 31 -6 14 -14 25 -18 25 -4 0 -12
-11 -18 -25z m28 -25 c0 -6 12 -15 26 -20 23 -9 24 -12 13 -27 -8 -9 -13 -23
-11 -32 2 -13 -6 -16 -38 -16 -32 0 -40 3 -38 16 2 9 -3 23 -11 32 -11 15 -10
18 13 27 14 5 26 14 26 20 0 5 5 10 10 10 6 0 10 -5 10 -10z"/>
<path d="M176 583 c-3 -3 -3 -10 0 -14 7 -12 34 -11 34 0 0 11 -26 22 -34 14z"/>
<path d="M443 583 c-18 -6 -16 -23 1 -23 17 0 30 16 19 23 -5 2 -14 2 -20 0z"/>
<path d="M150 500 c0 -5 9 -10 20 -10 11 0 20 5 20 10 0 6 -9 10 -20 10 -11 0
-20 -4 -20 -10z"/>
<path d="M450 500 c0 -5 9 -10 20 -10 11 0 20 5 20 10 0 6 -9 10 -20 10 -11 0
-20 -4 -20 -10z"/>
<path d="M177 434 c-4 -4 -4 -10 -1 -15 6 -10 34 0 34 12 0 10 -24 12 -33 3z"/>
<path d="M430 431 c0 -11 26 -22 34 -14 3 3 3 10 0 14 -7 12 -34 11 -34 0z"/>
<path d="M227 364 c-4 -4 -7 -22 -7 -40 l0 -33 -87 -3 -88 -3 -3 -123 -3 -122
281 0 281 0 -3 138 -3 137 -87 3 c-81 3 -87 4 -90 25 -3 21 -9 22 -93 25 -50
1 -94 0 -98 -4z m173 -159 l0 -145 -80 0 -80 0 0 145 0 145 80 0 80 0 0 -145z
m180 -25 l0 -120 -80 0 -80 0 0 120 0 120 80 0 80 0 0 -120z m-360 -15 l0
-105 -80 0 -80 0 0 105 0 105 80 0 80 0 0 -105z"/>
<path d="M299 303 c-11 -13 -11 -17 -1 -20 6 -3 12 -13 12 -24 0 -10 5 -19 10
-19 6 0 10 18 10 40 0 43 -9 50 -31 23z"/>
<path d="M481 256 c-8 -10 -9 -16 -1 -21 5 -3 10 -1 10 4 0 6 5 11 12 11 6 0
2 -10 -10 -23 -29 -31 -28 -37 8 -37 17 0 30 5 30 10 0 6 -5 10 -11 10 -8 0
-8 4 0 14 13 16 4 46 -14 46 -7 0 -18 -6 -24 -14z"/>
<path d="M120 224 c0 -8 4 -13 8 -10 4 2 8 -4 8 -14 0 -10 -4 -16 -8 -14 -4 3
-8 -2 -8 -10 0 -9 9 -16 20 -16 20 0 22 4 22 40 0 36 -2 40 -22 40 -11 0 -20
-7 -20 -16z"/>
</g>
</svg>
